<svg xmlns="http://www.w3.org/2000/svg" viewBox="0 0 251 253">
  <defs/>
  <g fill="#000" fill-rule="nonzero">
    <path d="M118.964 18.453c-1.61-.965-3.543-.321-4.51 1.287-.966 1.61-.322 3.54 1.289 4.505 15.142 8.365 25.129 27.025 25.129 47.616 0 10.296-1.933 19.948-6.443 28.635-.645 1.608 0 3.539 1.288 4.182.322.322.967.322 1.289.322 1.289 0 2.255-.643 2.9-1.93 4.832-9.33 7.087-20.27 7.087-31.53.322-22.843-10.954-43.756-28.029-53.087z"/>
    <path d="M104.674-.99C88.4-.671 73.401 7.306 61.913 21.347 50.744 35.388 45 53.897 45 73.681c.638 36.698 23.295 67.651 52.335 72.757l-1.277 2.872c-1.276 2.553-.957 5.425.32 7.978 1.276 2.233 3.829 3.51 6.381 3.829 0 3.83.639 18.508 15.318 32.55 20.423 19.465 11.488 46.908 10.85 47.865-.639 1.596.319 3.51 1.914 4.149.32 0 .639.319.958.319 1.276 0 2.553-.957 2.872-2.234.319-1.276 10.53-32.23-12.765-54.567-13.083-12.765-13.403-25.53-13.083-27.763 2.872 0 5.425-1.595 7.02-3.83 1.596-2.233 1.596-5.424.32-7.977l-1.596-3.191c29.039-5.744 51.058-37.017 50.42-73.714-.32-19.785-6.702-37.974-18.19-52.015-10.53-14.36-25.848-22.019-42.123-21.7zm5.744 141.365c-.957 0-1.915.638-2.553 1.595-.638.958-.638 1.915 0 2.872l3.191 7.02c.32.958 0 1.596 0 1.915-.319.32-.638.958-1.595.958h-6.063c-.958 0-1.277-.638-1.596-.958-.319-.319-.638-.957 0-1.914l3.191-6.701c.32-.958.32-1.915 0-2.872-.638-.958-1.595-1.596-2.553-1.596C74.358 138.46 52.02 109.102 51.701 74c-.319-18.189 5.106-35.42 15.318-48.185C76.91 13.05 90.314 6.03 104.674 5.71h.638c14.041 0 27.444 6.701 37.656 19.146 10.53 12.765 16.274 29.678 16.594 47.867.638 34.783-21.062 64.779-49.144 67.65zM65.77 183.02l-2.462-4.706L63 178s-.308 0-.308.314l-2.154 4.706-5.23 1.255s-.308 0-.308.313v.314l4 3.45-.615 5.334s0 .314.307.314h.616l4.615-2.824 4.615 2.197h.308s.308-.314 0-.314l-1.23-5.02L71 184.275v-.314l-.308-.314-4.923-.627zM169 221.08l-.32-.32-5.454-.64-2.566-4.8-.32-.32s-.321 0-.321.32l-2.245 4.8-5.453.96s-.321 0-.321.32v.32l4.17 3.52-.642 5.44s0 .32.321.32h.642l4.81-2.88 4.812 2.24h.321s.32-.32 0-.32l-1.283-4.48 3.528-3.84c.321-.32.321-.32.321-.64zM65.77 231.02l-2.462-4.706L63 226s-.308 0-.308.314l-2.154 4.706-5.23 1.255s-.308 0-.308.313v.314l4 3.45-.615 5.334s0 .314.307.314h.616l4.615-2.824 4.615 2.197h.308s.308-.314 0-.314l-1.23-5.02L71 232.275v-.314l-.308-.314-4.923-.627z"/>
    <path d="M154.77 170.12l-2.462-4.8L152 165s-.308 0-.308.32l-2.154 4.8-5.23.96s-.308 0-.308.32v.32l4 3.52-.615 5.44s0 .32.307.32h.616l4.615-2.88 4.615 2.24h.308s.308-.32 0-.32l-1.23-5.12 3.384-3.84v-.32l-.308-.32-4.923-.32zM17.6 29.14C24.32 25.302 32 21.147 32 12.196 32 10.279 30.72 9 28.8 9c-1.92 0-3.2 1.279-3.2 3.197 0 4.795-4.16 7.672-11.2 11.508C7.68 27.54 0 31.697 0 40.648c0 8.95 7.68 13.426 14.4 16.942 7.04 3.836 11.2 6.713 11.2 11.508 0 4.795-4.16 7.672-11.2 11.509C7.68 84.443 0 88.598 0 97.549s7.68 13.426 14.4 16.943c7.04 3.836 11.2 6.713 11.2 11.508 0 4.795-4.16 7.672-11.2 11.508C7.68 141.344 0 145.5 0 154.451c0 8.95 7.68 13.426 14.4 16.942 7.04 3.837 11.2 6.714 11.2 11.509s-4.16 7.672-11.2 11.508C7.68 198.246 0 202.402 0 211.352c0 8.951 7.68 13.427 14.4 16.943 7.04 3.836 11.2 6.713 11.2 11.508 0 1.918 1.28 3.197 3.2 3.197 1.92 0 3.2-1.279 3.2-3.197 0-8.95-7.68-13.426-14.4-16.942-7.04-3.836-11.2-6.713-11.2-11.509 0-4.795 4.16-7.672 11.2-11.508 6.72-3.836 14.4-7.992 14.4-16.942 0-8.951-7.68-13.427-14.4-16.943-7.04-3.836-11.2-6.713-11.2-11.508 0-4.795 4.16-7.672 11.2-11.508C24.32 139.107 32 134.95 32 126c0-8.95-7.68-13.426-14.4-16.943-7.04-3.836-11.2-6.713-11.2-11.508 0-4.795 4.16-7.672 11.2-11.508C24.32 82.205 32 78.049 32 69.098c0-8.95-7.68-13.426-14.4-16.942-7.04-3.836-11.2-6.713-11.2-11.508 0-4.796 4.16-7.353 11.2-11.509zM236.6 29.76c6.72-3.833 14.4-8.305 14.4-17.566C251 10.277 249.72 9 247.8 9c-1.92 0-3.2 1.277-3.2 3.194 0 5.11-4.16 7.984-11.2 12.136-6.72 3.832-14.4 8.304-14.4 17.565 0 9.262 7.68 13.733 14.4 17.566 7.04 4.152 11.2 7.026 11.2 12.136 0 5.11-4.16 7.984-11.2 12.136-6.72 3.832-14.4 8.304-14.4 17.565 0 9.262 7.68 13.733 14.4 17.566 7.04 4.152 11.2 7.026 11.2 12.136 0 5.11-4.16 7.984-11.2 12.136-6.72 3.833-14.4 8.304-14.4 17.566 0 9.261 7.68 13.733 14.4 17.565 7.04 4.152 11.2 7.026 11.2 12.136 0 5.11-4.16 7.984-11.2 12.136-6.72 3.833-14.4 8.304-14.4 17.566 0 9.261 7.68 13.733 14.4 17.565 7.04 4.152 11.2 7.026 11.2 12.136 0 1.917 1.28 3.194 3.2 3.194 1.92 0 3.2-1.277 3.2-3.194 0-9.261-7.68-13.733-14.4-17.565-7.04-4.152-11.2-7.026-11.2-12.136 0-5.11 4.16-7.985 11.2-12.136 6.72-3.833 14.4-8.304 14.4-17.566 0-9.262-7.68-13.733-14.4-17.565-7.04-4.152-11.2-7.026-11.2-12.136 0-5.11 4.16-7.985 11.2-12.137 6.72-3.832 14.4-8.303 14.4-17.565s-7.68-13.733-14.4-17.565c-7.04-4.152-11.2-7.027-11.2-12.137s4.16-7.984 11.2-12.136c6.72-3.832 14.4-8.303 14.4-17.565s-7.68-13.733-14.4-17.566c-7.04-4.151-11.2-7.026-11.2-12.136 0-5.11 4.16-7.984 11.2-12.136zM193.28 43.872C200 40.681 208 37.17 208 29.192c0-1.915-1.28-3.192-3.2-3.192-1.92 0-3.2 1.277-3.2 3.191 0 3.511-4.48 5.745-10.88 8.937C184 41.319 176 44.83 176 52.808c0 7.98 7.68 11.49 14.72 14.681 6.72 2.873 10.88 5.426 10.88 8.937 0 3.51-4.48 5.425-10.88 8.617C184 88.234 176 91.745 176 99.723c0 7.98 7.68 11.49 14.72 14.681 6.72 2.873 10.88 5.426 10.88 8.936 0 3.511-4.48 5.745-10.88 8.937-6.72 3.191-14.72 6.702-14.72 14.68 0 7.98 7.68 11.49 14.72 14.681 6.72 2.873 10.88 5.426 10.88 8.936 0 3.511-4.48 5.745-10.88 8.937-6.72 3.191-14.72 6.702-14.72 14.68 0 7.98 7.68 11.49 14.72 14.681 6.72 2.873 10.88 5.426 10.88 8.937 0 1.914 1.28 3.191 3.2 3.191 1.92 0 3.2-1.277 3.2-3.191 0-7.98-7.68-11.49-14.72-14.681-6.72-2.873-10.88-5.426-10.88-8.937 0-3.51 4.48-5.744 10.88-8.936 6.72-3.191 14.72-6.702 14.72-14.68 0-7.98-7.68-11.49-14.72-14.681-6.72-2.873-10.88-5.426-10.88-8.937 0-3.51 4.48-5.744 10.88-8.936C200 134.83 208 131.32 208 123.341c0-7.98-7.68-11.49-14.72-14.681-6.72-2.873-10.88-5.426-10.88-8.937 0-3.51 4.48-5.744 10.88-8.936C200 87.596 208 84.085 208 76.107c0-7.98-7.68-11.49-14.72-14.681-6.72-2.873-10.88-5.426-10.88-8.937 0-3.51 4.16-5.744 10.88-8.617z"/>
  </g>
</svg>
