
<svg xmlns="http://www.w3.org/2000/svg" viewBox="0 0 231 256">
  <defs/>
  <g fill="#000" fill-rule="nonzero">
    <path d="M207.75 44.536c-3.632-15.74-14.66-28.44-29.504-33.969C166.04 6.018 146.438 0 116.843 0h-1.85c-29.268 0-48.18 5.637-61.409 10.567-14.843 5.53-25.871 18.229-29.5 33.969-14.362 62.267-14.362 76.877-14.362 88.617v61.94H3.185A3.192 3.192 0 000 198.296v24.668a3.192 3.192 0 003.185 3.201h16.92v11.315C20.106 247.691 28.37 256 38.53 256s18.423-8.309 18.423-18.521v-11.315h117.892v11.315c0 10.212 8.263 18.521 18.423 18.521 10.16 0 18.423-8.309 18.423-18.521v-11.315h16.125a3.192 3.192 0 003.185-3.201v-24.668a3.192 3.192 0 00-3.185-3.201h-5.706v-61.941c0-3.924 0-8.168-.536-14.404-1.068-12.424-4.263-32.756-13.823-74.213zm-91.833 127.699c-9.825-18.845-28.57-35.693-55.895-50.147-19.607-10.37-37.05-15.936-41.627-17.313.397-2.612.865-5.468 1.413-8.6h192.215a399.28 399.28 0 011.413 8.601c-4.584 1.378-22.022 6.945-41.624 17.312-27.328 14.454-46.07 31.302-55.895 50.147zm94.946-82.463H119.1V43.83h81.805c.207.721.467 1.417.637 2.154 4.258 18.464 7.233 32.644 9.32 43.79zM55.799 16.57c12.865-4.793 31.329-10.347 60.13-10.164 29.18-.083 48.235 5.743 60.103 10.164 10.004 3.728 17.958 11.263 22.488 20.856H33.311C37.84 27.834 45.791 20.298 55.8 16.57zM30.29 45.982c.17-.737.43-1.432.636-2.153h81.805v45.943H20.97c2.087-11.146 5.062-25.326 9.322-43.79zm-14.2 87.171c0-5.263.003-11.133 1.396-21.953 12.138 3.804 77.742 26.167 95.482 69.745.002.006.007.01.009.016.009.021.025.037.035.058.146.333.347.62.581.875.071.077.154.138.233.21.221.196.46.356.723.484.06.028.098.081.16.106.038.016.079.01.117.024.349.129.712.217 1.09.217.377 0 .74-.088 1.09-.217.038-.014.078-.008.116-.024.062-.025.1-.078.16-.106.263-.127.502-.288.724-.485.079-.07.16-.132.232-.21a3.17 3.17 0 00.582-.874c.01-.02.026-.037.034-.058.003-.006.008-.01.01-.016 17.736-43.574 83.333-65.937 95.479-69.745 1.392 10.82 1.396 16.69 1.396 21.953v61.94H16.09v-61.94zm34.492 104.326c0 6.681-5.408 12.118-12.054 12.118s-12.054-5.437-12.054-12.118v-11.315h24.108v11.315zm154.738 0c0 6.681-5.408 12.118-12.054 12.118s-12.054-5.437-12.054-12.118v-11.315h24.108v11.315zm19.31-17.718H6.369v-18.264h218.262v18.264z"/>
    <path d="M53.002 141C41.42 141 32 150.196 32 161.5S41.42 182 53.002 182C64.579 182 74 172.804 74 161.5S64.58 141 53.002 141zm0 34.714c-8.031 0-14.562-6.376-14.562-14.214s6.53-14.214 14.562-14.214c8.027 0 14.558 6.376 14.558 14.214s-6.53 14.214-14.558 14.214zM179.002 141C167.42 141 158 150.196 158 161.5s9.42 20.5 21.002 20.5c11.577 0 20.998-9.196 20.998-20.5s-9.42-20.5-20.998-20.5zm0 34.714c-8.031 0-14.562-6.376-14.562-14.214s6.53-14.214 14.562-14.214c8.027 0 14.558 6.376 14.558 14.214s-6.53 14.214-14.558 14.214z"/>
  </g>
</svg>