<svg xmlns="http://www.w3.org/2000/svg" viewBox="0 0 512 230" class="kc-logo fill-kombigrey">
<defs/>
<g fill-rule="nonzero">
    <path d="M21.691 126.606l1.965-.976.491.488c9.495-.217 14.243-1.002 14.243-2.357 4.911 0 7.367-.623 7.367-1.869v-.406c0-.65-.491-.975-1.474-.975.983-4.009 1.637-13.381 1.965-28.117l.49-1.462-.981-4.632h.49l.492-.488 34.952 33.724v2.844h.982l1.965-1.382c0 .976 1.31 1.761 3.929 2.357 2.619 0 8.703-5.174 18.253-15.52L97.98 98c-6.276-5.254-10.56-9.155-12.851-11.701L68.43 70.373l8.84-9.427c5.785-8.018 15.799-18.5 30.041-31.448v-.406l-.982-.976c-.982 0-3.929-2.031-8.84-6.094l.49-1.382-.981-.975.49-1.381-.49-1.382-2.456.407-18.254-9.833h-1.964c-.546 0-1.037.786-1.473 2.357L43.792 34.21h-.491l-.982-10.808.49-4.632c-1.418-4.117-5.347-8.18-11.786-12.189C30.695 2.194 29.877 0 28.567 0h-.49c0 3.142-7.723 4.713-23.166 4.713-.218-1.57-.71-2.356-1.473-2.356H1.965l-.492.487c0 2.763-.49 4.144-1.473 4.144L1.965 20.64l-.492.488c.437 0 .764 1.246.983 3.738l-.491 2.357C3.22 28.469 4.038 37.678 4.42 54.852v.487l-.491.488.982 20.64.983 1.382v5.119l-.492 1.87.492 1.868v.488c0 9.21.49 16.252 1.473 21.128-.218 2.275-.71 3.846-1.473 4.713v1.381c2.619.325 3.929.786 3.929 1.382l-.492 2.356 12.36 8.452zm57.053-15.44h-.491c-12.988-12.027-27.094-25.95-42.319-41.769-1.964 0-3.274-1.408-3.929-4.225-1.637.216-2.456.677-2.456 1.381v4.226l.492.487-.983 5.201.491 2.275.492 21.616c0 5.31-1.146 8.424-3.438 9.345H21.69l-7.94 1.463-.49-.488h-.492l-.49.488-1.965-1.463.49-1.869A84.928 84.928 0 018.84 89.55c-.382-43.123-.873-64.684-1.473-64.684l.491-7.557c0-.813-.819-1.273-2.456-1.382v-3.25l-.49-2.357c4.583-1.896 9.522-2.844 14.815-2.844l4.42.488v-.488c1.637 0 2.456-.623 2.456-1.869h.49l.492.488-.491.487.491 2.357v4.225l.982 17.797-.49 5.12c0 1.624.981 5.227 2.946 10.807-.437 0-.764.948-.982 2.844l.982.894h.982l12.77-12.19c17.08-15.818 27.42-24.567 31.022-26.247 1.637.054 2.456.38 2.456.975 3.11 0 6.903 2.79 11.378 8.37L49.686 60.052l1.964 2.276c2.51 0 6.303 3.142 11.378 9.426l16.207 13.57 13.342 12.677c0 .596-4.61 4.984-13.833 13.165zm-42.81-73.623h-.982l-2.456-9.427.491-1.869-1.473-14.058v-.487c3.929 1.029 5.894 6.961 5.894 17.796l.49 1.463h-.982l-1.473-8.94h-.982c0 4.01.327 7.152.982 9.427h-.491l.982 6.095zm-2.456 6.988l-.49-2.356v-4.632l2.455 2.275h.491c1.092 0 2.237-2.492 3.438-7.476 0-4.93-.655-10.076-1.964-15.44 1.964 0 2.946 5.932 2.946 17.797 0 3.413-2.292 6.69-6.876 9.832zm27.585 16.415h-.49v-.894l-1.474.894-1.473-.894C66.193 52.63 71.104 47.62 72.359 45.02h.492l.49.487v-.975l-.49-.487 2.455-2.276h.491l-.982 1.382v.487h.982l3.438-3.819v-.406c-1.31 0-1.964.46-1.964 1.381h-.491v-.487L90.122 25.76c1.746 0 2.892.785 3.438 2.356l1.964-2.762 4.911 2.762v.488l-.49.488c-2.074 0-3.384.92-3.93 2.763v.487c.983 0 1.474.46 1.474 1.382-.928 0-3.738 2.519-8.431 7.557v.487l.573.407-2.538.975c-.436 1.842-1.255 2.763-2.455 2.763-5.621 6.772-9.223 10.537-10.805 11.295h-.491v-.487c2.073-1.517 5.675-5.58 10.804-12.19v-.487h-.49l-4.42 4.225-7.859 7.964h-.491c.273-2.167 1.091-3.25 2.456-3.25 5.075-7.422 8.513-11.648 10.313-12.677l1.965-.894c.71-1.896 1.364-2.844 1.964-2.844l-.49-1.382V34.7l.49-.488v-.487h-.982l-.491.487c-.11 1.571-.6 2.357-1.473 2.357l-7.367 7.476c-5.512 7.367-10.914 13.002-16.208 16.902zM97.98 32.342h-.491v-.894h1.473l-.982.894zm-6.876.488v-.975h-.491l-.982.975h1.473zm1.965 1.869l2.455-2.357h-.49l-1.965 1.87v.487zM58.608 55.827v-.488l.982-.975v.488l-.982.975zm5.402 9.832l-1.473-.975 2.455-2.356v1.95l-.982 1.381zm4.42 1.382h-.982c.328-2.167.819-3.25 1.474-3.25h1.473v1.38l-1.965 1.87zM36.425 88.169h-.49c0-5.634-.983-10.32-2.948-14.058v-1.463c2.947 2.709 4.42 5.363 4.42 7.963h-.49l-.492.488v7.07zm5.403 29.985c-1.637 0-2.456-2.817-2.456-8.45v-1.382l-.491-.488h.491l-.982-5.607h.49l-.49-11.702v-.487l-.491-.488.49-.487v-.894l-.49-.488 1.473-.975-.982-7.964h.49c1.638.976 2.457 2.249 2.457 3.82v.406l-.492.488.983 5.607v.487l-.491.488c.982 8.505 1.473 16.17 1.473 22.997l-1.473.406.982 3.332-.491 1.381zM34.46 90.038h-.491l-.983-.975v-1.87l.491-3.25-.49-.487.49-1.87h.492l.49 8.452zm2.455 4.713h-.49v-4.226h.49v4.226zm.983 12.596h-.491l-.492-8.37v-3.332h.492l.49 5.2-.49.407v.487l.49.488v5.12zm-2.456 4.713c-.655 0-1.31-.948-1.965-2.844v-.407l.492-.487v-.488l-.492-.487.492-3.739-.492-.487c.655 0 .983-1.87.983-5.607h.49l.983 4.713-.982 1.381.982 5.608v.487l-.491 2.357zm62.537-6.095c-.982-.217-1.474-1.463-1.474-3.738h.983l.49 3.25v.488zm-5.894 2.357h-.49v-1.87h.49v1.87zm3.93 5.12h-1.474l-1.473-4.633v-2.356h.49c0 2.817.82 4.225 2.456 4.225v2.763zm4.91-4.633l-.49-1.869v-.487l1.964.487v.407l-1.473 1.462zm-11.295 4.226h-.573l-.491-2.357v-1.462l1.064-.894.49 1.381-.49 3.332zm-2.047 2.763h-.49l-1.474-4.632 1.473-1.95h.491v6.582zm-2.946-.894h-.492l-1.473-1.463.982-.894h.983v2.357zm5.484-.975v-1.382h.49l.492.488-.982.894zM34.46 120.51l-5.403-4.226c0 .867.819 2.113 2.456 3.738h-2.456v-.487c-2.837-2.276-4.31-3.982-4.42-5.12l1.474-.975v.488l1.473-.488 1.473 1.463h-.982v.894l.491.487c.655 0 .982-.46.982-1.381 1.42.108 3.384 1.652 5.894 4.632l-.982.975zm-11.296-1.87l-4.42-3.737h.982c2.183 1.408 3.329 2.492 3.438 3.25v.488zm65.893 1.87h-.491v-.488l1.064-.894h.49v.407l-1.063.975zm-61.473 2.844H25.62l-1.473-1.463v-.406c2.292.704 3.438 1.327 3.438 1.869zm133.996 3.25l.9-.893 2.783.487 9.25-.894 2.292.407 2.374-.407 2.7.894 1.392-.487 1.883.487h3.192l1.392-1.381 4.174.487c1.255 0 1.883-.596 1.883-1.787h1.8c3.875-1.03 8.05-4.226 12.525-9.59 7.694-9.1 11.541-14.085 11.541-14.951 1.8 0 3.329-11.404 4.584-34.212 0-2.22-1.692-9.074-5.075-20.559l.491-1.3c-1.091-3.359-5.102-8.343-12.033-14.952-8.949-8.018-13.424-12.379-13.424-13.083l-10.559-6.582c-4.966-2.221-13.288-3.847-24.966-4.876l-.49.488-3.193-.894-4.175.406h-3.683l-11.132 3.575c-5.948 2.276-10.696 6.501-14.243 12.677v.407l.41.487c-3.275 3.467-6.03 7.557-8.268 12.27-2.783 10.185-4.638 19.233-5.566 27.142.327 5.092 1.719 11.973 4.174 20.64 1.256 6.61 5.103 13.896 11.542 21.86 5.239 3.684 9.386 7.205 12.442 10.564l17.107 10.483c3.056.975 5.048 2.004 5.976 3.088zm.49-14.87h-.49c-7.585-.596-13.724-1.788-18.417-3.576l-10.642-6.988-1.391.894c-2.783-2.06-4.175-3.522-4.175-4.389h-.9v.407l1.391 1.787v.407c-.818-.325-2.974-3.088-6.466-8.289-4.638-13.327-6.958-22.238-6.958-26.735l1.883-17.065c1.855-10.185 4.01-16.631 6.467-19.34 2.182-5.363 7.094-10.754 14.733-16.171l-2.783.812h-.409v-.406l.41-.406c8.348-3.792 15.743-5.689 22.182-5.689l1.882.407 3.684-.407c13.697 0 25.702 5.526 36.016 16.578 6.44 14.79 9.659 30.446 9.659 46.969l.49 1.3c-.381 0-.681 2.032-.9 6.095-1.855 7.638-4.938 13.625-9.25 17.959-4.583 4.875-8.894 8.234-12.932 10.076h-.491c0-1.138-.464-1.706-1.392-1.706-.49 0-1.091 1.029-1.8 3.088l-1.883-.488h-.41l-.49.488c-3.548 2.492-7.095 3.954-10.642 4.388l-.409-.488h-1.883l-.49.488v-.488l-3.193.488zm-22.673-99.952l5.075-1.3v-.894c-3.383.758-5.075 1.49-5.075 2.194zm-1.391.894l.982-.894h-.982l-.9.894h.9zm-7.776 3.494h-.492l2.292-2.194h.491v.406c-.163.596-.927 1.192-2.291 1.788zm35.033 76.223c.928 0 1.392-.568 1.392-1.706 2.183-.704 3.274-1.3 3.274-1.788 2.456 0 3.683-.433 3.683-1.3h.9c1.91-.704 4.83-3.765 8.76-9.183 3.383-9.21 5.074-16.523 5.074-21.94 0-4.876-1.228-9.995-3.683-15.359 0-4.28-2.156-8.505-6.467-12.676 0-1.842-7.066-3.468-21.2-4.876-6.057 0-10.996 2.79-14.816 8.37-4.584 11.214-6.875 19.99-6.875 26.329v.406c1.418 11.051 3.246 18.636 5.484 22.753 5.566 4.55 8.349 7.476 8.349 8.776l3.192-.406c2.292 1.192 4.311 1.788 6.057 1.788h4.093l2.374-.488.41 1.3zm-17.517-62.246v-.813l5.075-2.681h.492l-5.567 3.494zm12.933 9.264h-.9l-.982-2.682v-.406h.49l.492.406v-.812l-4.175-5.77v-.406l1.392-.407 4.175 7.395.9-.812v-.894l-.9-1.3v-.488l2.7 2.194v-.894c-.927-1.788-2.455-3.684-4.583-5.688l.9-.894h.491c.492.054 2.483 3.142 5.976 9.264-.928 0-1.392.27-1.392.812h-1.8l-.492-.406-.9.894-1.883-1.3.491 2.194zm8.759-9.264h-.491l-1.31-1.3h.9l.9.894v.406zm5.566 8.37c-1.692 0-4.475-2.79-8.35-8.37h.983v.488l7.367 6.988v.894zm-19.89-4.794h-.41l-1.883-1.788v-.407l.9-.893h.492l.9 3.088zm22.673 4.306c-.819 0-2.838-1.896-6.057-5.688h.49c3.712 3.034 5.567 4.93 5.567 5.688zm-6.958 0h-2.292l-3.274-5.688h.491c3.384 2.763 5.075 4.524 5.075 5.282v.406zm-20.3 10.564h-.49c-3.002-4.713-4.857-8.234-5.567-10.564v-.406l.491-.406 3.684 3.9v-.894l-1.801-4.794h.9c0 .867.928 1.734 2.783 2.6h.41l-1.801-4.306v-.894h1.8l3.766 6.582h.9l-.49-2.194v-.488c1.036.434 1.964 1.598 2.782 3.494-.982 0-2.046.596-3.192 1.788l-1.883-1.3v.406l1.392 1.788-.9.894c0-1.463-.464-2.194-1.392-2.194v-.894h-.982v.406c0 .975.464 2.005 1.391 3.088l-.9 1.3v.488l-1.392-.488h-.409l.9 2.682v.406zm63.274-4.388h-.982v-1.3h-.9v.894c-2.456-.27-3.684-3.06-3.684-8.37v-1.706h.491c1.583 5.254 2.647 7.882 3.192 7.882h.491l-.49-.488.49-2.194-.49-1.706c.927 0 1.555 2.33 1.882 6.988zm-64.665 7.476h-.9l-.492-1.787c-.818-.488-2.674-3.413-5.566-8.777h.491v-.894h.492c3.983 6.772 5.975 10.592 5.975 11.458zM165.264 87.6c-2.128-1.734-3.192-3.06-3.192-3.982-2.347 0-4.338-5.688-5.975-17.065l.9-1.788-.491-3.9v-.406c0-7.151 1.992-13.002 5.975-17.553l1.392.894h1.391c0-.813 1.556-1.409 4.666-1.788l5.075 1.788c1.364 1.734 2.756 2.6 4.175 2.6l1.8-.406h.491l.41.406c2.183 0 3.274 3.224 3.274 9.67l-.491 3.007c0 7.964-2.456 15.142-7.367 21.534-4.311 4.66-8.322 6.989-12.033 6.989zm48.049-36.405h-.9l-.983-3.494v-.894h.491l1.392 3.981v.407zm7.367 9.264c-1.965 0-4.12-3.955-6.467-11.865v-.893h.491l6.467 11.376v.894l-.491.488zm-68.758 2.6h-.982c0-.867-2.456-5.986-7.367-15.358h.49l1.392 1.3c3.22 6.5 5.376 10.157 6.467 10.97v3.088zm-7.449-9.67c-1.528-1.463-2.292-2.926-2.292-4.388h.983l1.31 3.982v.406zm75.306 32.017h-.9c-2.292-10.51-3.847-15.765-4.666-15.765v-.487l.491-.407-.9-.894.41-1.706-1.802-4.876c-.654 0-.982.46-.982 1.382h-.9v-.488l.49-.406v-8.776h.41l7.449 24.947h1.392l.409-.406-.9 7.882zM152.822 56.07h-.9l-.982-3.087 1.882.406v2.681zm-5.566 1.707c-1.2-.488-1.8-1.517-1.8-3.088v-.406c.49 0 1.09.867 1.8 2.6v.894zm68.84.894h-.491l-.9-2.194h.9l.49 1.3v.894zm-67.857 3.088h-.492l-.9-2.682v-.406l1.392.406v2.682zm72.44 11.376h-.9c-2.455-6.826-3.847-11.512-4.174-14.058h.49c3.057 2.926 4.585 7.612 4.585 14.058zm-73.832-5.282h-.491l-3.192-8.288h.409c.546.054 1.637 2.519 3.274 7.395v.893zm2.292-3.494l-1.392-1.706v-.488h.9l.492 1.3v.894zm3.192 5.688h-.9l-.9-2.194v-.406h.409c.927.217 1.391 1.084 1.391 2.6zm-3.683-.406l-.9-.894v-.406l.9.813v.487zm-.9 10.483c-2.456-2.817-3.684-5.147-3.684-6.989v-.893h.41l3.273 6.988v.894zm63.273-.406h-.491l-.41-2.194h.9v2.194zm5.975 9.182l-1.391-3.494V85l.49-.488-.9-1.706.9-1.382-.9-1.3V77.93h.41l2.292 10.564h-.41l-.49.406zm-56.807-1.3c-1.582-.163-2.946-1.49-4.092-3.982v-.406h.9l3.192 3.494v.894zm50.34 17.552h-.9l.9-9.263-.408-.407c.6 0 .9-1.164.9-3.494l-.491-1.788v-.406l.49-.406-.49-3.576v-1.706h.49l1.392 8.776-.49.406.49 1.788-.982 3.494v3.9l-.9 2.682zm-4.583 5.201h-.491v-1.3l2.292-21.86-.41-.487h.9v3.088l.901.894-.409 1.3.41 1.707v.487l-.41.406.41 1.788-.901 3.494v3.495l-.9 1.3v4.388l-1.392 1.3zm7.367-21.453h-.491v-1.706h.49V88.9zm3.274 4.388h-.491l-.491-2.194V88.9h.49l.901 2.194-.409 2.194zm-2.374 2.194h-.409l-.982-5.282h.982l.41 3.982v1.3zm-9.659-2.6v-1.3h.9v.406l-.9.894zm-5.075 21.047h-.49l-.901-3.982.9-1.3-.409-1.788.9-.894-.49-1.3.49-.406 3.193-7.883h.982l-1.391 7.476v.407l.409.406c-2.128 4.659-3.193 7.747-3.193 9.264zm-10.64 6.988h-.901v-2.194c3.656-10.239 6.412-15.358 8.267-15.358h.491l-7.858 17.552zm14.815-14.464h-.491l.491-1.788h1.31l-1.31 1.788zm0 4.388h-.982v-3.088l1.391.894-.409 2.194zm-6.958 4.794h-.9l1.392-6.094h.409l.49 3.006c-.436 2.059-.9 3.088-1.39 3.088zm-36.507 6.582l-18.417-10.482v-.894c2.729.65 4.256 1.517 4.584 2.6l13.833 8.37v.406zm23.083-4.794h-.9v-.488l.491-.406c0-3.196 1.228-4.794 3.683-4.794h.41c-2.456 2.058-3.684 3.954-3.684 5.688zm-5.075 2.194h-.9c1.364-4.117 2.428-6.176 3.192-6.176h.491l-2.783 6.176zm-8.758 0v-2.194c.818-1.192 2.674-2.357 5.566-3.494h.41v1.706l-1.802 3.088h-.49v-.406l.982-1.382v-.406l-.983-.894h-.9l-.491.488c-.819 2.33-1.583 3.494-2.292 3.494zm23.083-1.3h-.41v-.894l.41-.488h.49l.41.488-.9.894zm-24.884 2.113h-.982l.49-1.707h.492v1.707zm12.442 1.787h-.9v-1.3h.9v1.3zm165.919 4.389l6.548-2.276v-.975l-2.373-3.25.982-2.763-.491-5.039.49-1.869-.49-12.514.49-48.513.492-4.632-.491-.406.491-.488v-8.776l-.491-.488.491-.487v-2.763l.41-6.42-1.392-3.25-2.292.487-15.47-18.527c-1.474 1.517-2.866 2.275-4.175 2.275l-8.022 6.989c-3.492 3.846-7.367 9.236-11.623 16.17l-20.628 27.71c-1.528 0-5.43-3.846-11.705-11.538-9.55-12.623-19.372-24.19-29.468-34.699l-1.8.488-7.04-3.657c-.764 0-1.228.92-1.391 2.763v4.144l.409 5.526h-.41l-.49-.488v3.738c1.255 1.626 1.882 3.007 1.882 4.145V42.5l-.49 2.275.49.488-.982 13.408c0 7.638.327 13.95.982 18.934l-.49 2.356v.894l.49 21.29-.49 1.382.49 1.382v5.038c-.927 0-1.391.325-1.391.975v.894l.9.894h.491l-.49 1.381v1.382h.981l1.392-.894 6.057 6.5c0 2.439 5.757 3.657 17.271 3.657l2.374.488.491-.488 2.292.488 5.157-.488h5.648l.9-.893v-.488l-1.882-1.381c.927-2.276 1.391-4.74 1.391-7.395v-1.87c0-2.383-.464-5.308-1.391-8.775h.49l-.49-5.039.49-10.157.492-2.845-.491-.406V85c1.037.704 1.964 2.085 2.783 4.144 3.874 3.521 6.057 5.986 6.548 7.395l2.865-.407c.6 0 3.247 2.6 7.94 7.802v2.356h.9c3.657-3.142 8.95-9.318 15.88-18.528v5.526l.491 6.989-.49.406c.654 1.409.982 3.413.982 6.013v1.382c-1.91 0-2.865.487-2.865 1.463v.406c6.603 4.442 11.296 8.289 14.079 11.539 0 1.571 4.829 3.278 14.488 5.12l2.374-.488h.409l.491.488zm-99.126-15.278c-1.91 0-3.792-1.083-5.648-3.25v-.894l.491-7.395-.49-1.381.49-.488-.49-2.763V75.736l.49-3.17h-.49v-.975l.49-1.381-.49-1.869v-9.183l.49-36.08-.49-2.763.49-5.12v-2.762c1.474 0 4.912 2.302 10.314 6.907l29.877 36.974c3.11 2.546 4.666 4.876 4.666 6.989 2.182 0 3.274-.786 3.274-2.357l27.176-36.974c3.547-6.23 8.54-11.62 14.979-16.17h.41l1.882 27.71c0 29.145.464 51.032 1.391 65.659l-3.274 2.763v.487l.982 1.382v.487h-7.039l-.491.406-.41-.406c-.982 0-1.473-.623-1.473-1.869h-.9c-1.856.975-2.783 2.357-2.783 4.144h-.491l-.492-6.013c1.583 0 2.374-3.088 2.374-9.264l-2.374-24.46.492-2.275c-.546 0-1.01-1.408-1.392-4.225l.491-1.788v-.488l-.49-.487.49-2.763c0-3.684-.627-5.526-1.882-5.526-.819 0-1.283.623-1.392 1.87 0 2.437-8.595 14.437-25.784 35.998h-.41l-4.665-3.25-13.588-17.553c-1.528 0-2.783-.596-3.765-1.788-2.347-2.383-3.902-5.01-4.666-7.882l-4.666.894.9 25.922.492.406h-.491l-.41 19.91-.49 3.25c0 .921-3.739 1.68-11.215 2.275zm100.026-1.787h-.409l-2.865-13.002v-1.382c1.474 0 2.565-.298 3.274-.894 0-2.925-.6-7.394-1.8-13.408h-.983l.983 2.763-.491.488v1.381l.49.406h-.49l.9 6.989h-.9l-2.374-6.013.49-2.763v-.488h-.9l-.49.488v-1.382l.9-.975c-.928-1.138-1.392-2.221-1.392-3.25v-.407l.491-2.763-1.882-12.026h1.391l.491 1.788v.487l-.49.488c.327 2.167.79 3.25 1.39 3.25l-.409.406 1.392 6.501h.9v-.894l-3.765-17.633.491-1.382v-.406l-.49-.488h.49a53.997 53.997 0 01-3.765-19.909v-2.275h.491c0 1.246.327 1.869.982 1.869h.41l-.41-1.381.41-1.87-2.292-8.288v-.488l.409-.487v-.407l-.41-.487v-.488l.41-.487c-.928-1.409-1.392-3.711-1.392-6.908v-1.381h.491l5.157 5.526-.49 1.869 5.156 21.697h-.491c-2.783-10.89-4.966-17.499-6.548-19.828h-.41v.487c2.183 5.689 4.366 15.846 6.549 30.473v1.87h-.491l-3.275-10.158h-.49l-.492.406c4.366 14.681 6.548 25.787 6.548 33.317h-1.391c0 1.517.464 2.438 1.391 2.763l.492 18.447v2.356l-.492 7.883zm-7.94-89.226c0-2.167-.763-3.873-2.291-5.12v.976c.545 2.763 1.173 4.144 1.882 4.144h.41zM346.9 36h-.409l-3.274-14.302v-.488h.41c2.51 2.005 3.765 3.386 3.765 4.145l-.9 6.988.408 2.763v.894zm-6.057 7.395l-.9-3.25v-.407l.41-.488c-.601-.704-.901-1.787-.901-3.25l-.9.975 1.39 6.42h.901zm-1.882 11.133h-.9l-.983-.976v-4.144c.546 0 1.173 1.707 1.883 5.12zm.982 5.525l-.982-.894v-2.356h.49l.492.487-.491.407.49 1.462v.894zm6.057.488l-.9-.975v-1.382l.9.975v1.382zm-7.94 3.17h-.491l-.491-3.17v-.488h.982v3.657zm2.292-1.382h-.9V60.54h.49l.41 1.788zm-24.31 2.763c-.601-.109-1.229-.867-1.883-2.276.654-1.408 1.282-2.167 1.882-2.275v4.55zm-3.275 1.869h-.41v-1.87h.41v1.87zm1.883 11.539l-.491-.407.49-1.869-.9-3.25.9-.894v-.488l-.49-.487c.654 0 1.146-1.842 1.473-5.526h.41l.49 1.87-.9 9.263h.41v.894l-1.392.894zm27.175 15.764h-.49c-2.183-6.013-3.275-9.724-3.275-11.132h.491l-.49-3.17V68.83h.49c0 3.792 1.092 11.945 3.274 24.46v.974zM309.083 70.21v-.488l.9-.893h.491l-1.391 1.381zM269.3 111.816l-2.783-.894v-9.264h.41l.49 1.382h-.49l.49 1.869h.983c0-3.36-.491-5.824-1.473-7.395h.49l-.49-1.382v-.487l.49-.488-1.39-3.656h.49l-.49-5.12c0-4.009-.792-6.013-2.375-6.013v-.407l.983-.975-.491-7.882v-1.382c1.255 0 2.182 2.465 2.783 7.395h-.41l.41 2.357v2.275h.982l-.491 1.382v1.381h.49l.901-.894-.409-1.869.9-.894h.491c0 .921.3 1.382.9 1.382h.492v-.894l-.491-2.357c.655 0 .982-.46.982-1.381h.41c0 2.22.463 3.927 1.39 5.12V85h-.9l-.49-.488c0-.92-.3-1.381-.901-1.381h-.491v.487l2.374 11.133h-.983l-1.391-4.632H269.3l-.49.406-.41-.406h-.491c0 3.792.764 9.779 2.292 17.959h-.41l-.49.487-.492-2.275h-.9l1.391 5.526zm40.19-30.067h-.408V73.46c0-.487 1.091-1.11 3.274-1.869v1.87h-.491l-.491-.488h-.492v4.632c-.927.975-1.391 2.356-1.391 4.144zm6.14 2.357h-.491l-.491-1.382 1.391-1.381v.406l-.409 2.357zm-8.022 8.288h-.409v-.487c0-2.763.464-5.824 1.392-9.183h.49v1.382c0 2.708-.49 5.471-1.473 8.288zM311.375 85l-.9-.894v-.975h1.39l-.49 1.869zm1.391.893v-.406l.982-.975V85l-.982.893zm-48.13 8.37h-.491V86.87h.49v7.394zm7.94 19.828h-.9v-.894c-.383-9.263-1.01-13.895-1.884-13.895v-.894l.41-2.276c-.546 0-1.01-1.706-1.392-5.12h1.392v1.382c2.183 5.58 3.274 9.129 3.274 10.646h-.41l-.49 11.051zm30.859-16.577l.49-2.763.901.894v.487l-1.391 1.382zm-28.486 2.275h-.982l.491-2.275h.491v2.275zm26.112 0v-.487l.982-.894h.491l-1.473 1.381zm38.39 6.907h-.491l-.41-3.169v-2.844h.41l.49 3.25v2.763zm-64.502 0h-.49v-4.55h.49v4.55zm70.559 5.12h-.41c-.49 0-.982-.623-1.473-1.87v-.893c1.255.325 1.883 1.246 1.883 2.763zm-8.84 4.144h-.492l-1.882-5.526v-.487l.491-.406c.546 0 1.173 1.977 1.883 5.932v.487zm-6.549-.487h-.49c-.929 0-1.72-1.517-2.375-4.551l1.474-.488 1.391 5.039zm-67.366.975l-1.883-2.763v-.975h.983l.9 1.869v1.869zm78.09 3.657h-.492c-1.2-2.817-1.8-5.282-1.8-7.395l2.291 2.356v5.039zm-80.464.487h-.41c-1.909-2.058-2.864-4.36-2.864-6.907h.491l.491-.488h.491l1.801 7.395zm-4.174-1.869h-.491l-1.883-4.632 1.473-.406.9 3.657v1.381zm18.253-3.25l-.982-.894.982-.894v1.788zm-22.428 1.462h-.982l-.9-2.356h.9l.982 2.356zm11.623 3.17l-.9-.894v-1.87h.491l.41 2.357v.407zm72.032 1.381l-3.683-.406v-1.382l.41-.487h.49l.491.487c.6 0 .9-.785.9-2.356h.492l.9 3.738v.406zm11.214 1.381l-4.174-.893.491-1.382c-.928-1.03-1.392-2.113-1.392-3.25h.9l4.175 4.632v.893zm-85.046-2.762h-.492l-.49-1.382v-.406h.49l.492.406v1.382zm142.59 6.5l3.765-1.462 2.129.975c2.346-1.571 8.676-3.223 18.99-4.957 4.42 0 9.086-2.33 13.997-6.989 7.149-6.934 11.842-15.575 14.079-25.922-.327-4.55-1.228-8.695-2.701-12.433l-4.83-7.964-11.377-9.995c5.402-3.738 8.103-12.054 8.103-24.947 0-5.147-7.94-12.948-23.82-23.403-5.838-5.96-18.799-8.94-38.88-8.94l-1.637.488V2.6h3.765c16.262 0 26.712 1.978 31.35 5.932 8.295 4.226 12.442 11.865 12.442 22.916v2.52l-1.637 6.988c-3.602 3.846-5.402 6.338-5.402 7.476l-6.467 4.47v.487l.573.487 5.402-.975h.492c6.875 2.763 10.313 5.255 10.313 7.476 4.311 3.955 6.467 7.937 6.467 11.946 0 4.063-1.255 10.212-3.766 18.446 0 2.655-2.892 6.474-8.676 11.458-10.15 3.521-15.907 5.824-17.271 6.907h-1.638v-.487l.573-.488v-.487l-1.146-.976h-2.128l-5.402 1.95-2.21-.487h-11.296c-10.205 0-16.535-1.327-18.99-3.982h-.491v.488l.49.487-1.063 1.057c-.71 0-1.256-2.167-1.638-6.501l.573-6.501V82.806l-.573-2.52.573-.487-.573-2.032.573-1.462.492-32.911v-3.495l.573-9.913-.573-.488.573-3.007v-8.45l1.064-1.545v-4.47l.573-6.013h2.7c1.529-1.3 4.94-2.275 10.233-2.925V2.032l-.491-.488c-3.548 0-7.504 1.002-11.87 3.007h-.572l-1.637-.975h-.573l-2.702 4.469 1.146 7.964-.573 6.013v3.494l-.573 2.438.573.488-.573.487v2.032l.573 2.519-.573.487v.488l.573.487-.573.488v6.013l-.49 4.47v.487l.49.488-1.064 27.873.573 13.001-1.637 18.447.573 2.925-.573 3.495h.573l.491.487h1.064c.873-2.275 1.61-3.413 2.21-3.413l17.272 10.402c5.784 1.679 8.676 3.169 8.676 4.469 7.64.758 11.978 1.436 13.015 2.032zm-18.417-81.667c1.146-1.355 3.492-2.194 7.04-2.52v.488l5.975-.975h4.256c5.785-3.305 8.677-8.126 8.677-14.465 0-4.334-3.602-7.665-10.805-9.995l-4.83.57h-2.21l-8.103-.57c-.71.705-1.61 3.549-2.701 8.533v4.957l-.573 6.013h.573c.49 5.31 1.2 7.964 2.128 7.964h.573zm8.676-9.02c-.927 0-3.274-1.978-7.039-5.932v-1.057c1.419-1.57 2.128-2.898 2.128-3.982l-.49-4.957 3.191.488c7.586.162 12.47 2.004 14.652 5.526v1.462h-.573l-5.975-4.957h-1.064l-.491.488 4.256 4.957v.488h-.49l-5.976-4.957h-1.064l2.128 3.006v1.463h-.491l-4.912-5.932h-.49l-.574.487 5.403 7.477v.975l-1.637.487 1.146 1.463v1.056l-2.783-2.031h-.492v.487l1.637 2.032v1.463zm45.43.487l-2.21-5.932h1.146l3.192 4.957v2.032h-.491l-1.637-1.057zm-51.978-11.458h-1.064v-.487l.573-2.438h1.064l-.573 2.925zm14.652 13.002l-2.21-1.544v-.487l.573-.488v-3.007h1.064l5.402 1.544c-1.473 2.655-3.083 3.982-4.829 3.982zm-12.442-1.544c-.6 0-1.337-.975-2.21-2.925v-1.057h.573l1.637 3.495v.487zm47.067-.487v-1.463h-1.065v.487l1.065.976zm-9.25 15.44l-2.128-1.951h1.064l1.064.975v.975zm7.612 2.518h-.573l-.49-.487 1.063-.975h.573v.975l-.573.487zm-37.898 41.85c3.438-.542 7.23-1.706 11.378-3.494 4.147-1.625 7.203-4.605 9.167-8.939l-.49-3.494 1.636-6.501c-.927-2.655-1.664-3.982-2.21-3.982-2.4-6.988-10.86-10.483-25.375-10.483l-5.402 1.544-1.146-1.056-1.064 1.056v.488l-.491 6.42.49 6.988v3.982l-1.636 12.514.573 2.438c0 1.03 3.792 1.869 11.377 2.52l2.129-.488h.573l.49.487zm2.701-24.947h-.491l-5.403-4.47h-.573l1.638 2.52v.975l-2.702-1.95v.487l.492 2.438c-.71-.109-1.42-.921-2.129-2.438l1.637-4.47h1.637v.488l5.894 5.932v.488zm7.04 2.519c-1.692 0-3.138-1.327-4.339-3.982l-.49.488c-3.985-3.034-5.976-4.849-5.976-5.445v-.487h2.21l9.167 8.45v.488l-.573.488zm35.688-3.494c-.71-.163-1.419-1.003-2.128-2.52v-.487l2.701 2.032v.487l-.573.488zm-29.713 4.47h-2.128c-1.2-.597-3.029-2.574-5.485-5.933v-1.056c1.2 0 3.029.84 5.485 2.519l-.573.487c0 .921.9 2.248 2.7 3.982zm1.064-2.439c-1.2-.487-2.265-1.815-3.192-3.982h.49l2.702 2.926v1.056zm-19.481 8.451l-3.766-2.519V79.8l-2.128-2.032v-.975h1.064v-.487l-.573-.488v-2.032c.71-.65 1.064-1.977 1.064-3.981 2.565 2.112 4.202 4.28 4.912 6.5h-.573l-2.129-1.543h-.573v.568l2.702 3.982v.975zm54.105-3.981l-1.637-1.544h-.49l-.574.568-1.064-1.544v-.975h2.701l3.275 3.007-2.21.488zm-5.402-1.544h-1.064v-1.463l1.064.975v.488zm3.765 26.41h-.49c-.601 0-2.593-4.984-5.976-14.952l.573-1.463v-.488l-.573-.487 1.637-8.452h.491l2.21 5.933v.487h-1.637l1.064 6.013v.488h-1.064v2.52l3.765 10.4zm4.912-22.429h-1.064l.49-2.437h.574l.49 1.462h-.49v.975zm-48.13 10.97h-1.147v-2.437l-.49-4.47.49-3.494v-1.056l4.338-1.463 2.21.975h1.065l1.064-.975 2.21.488c-1.2 8.288-4.448 12.433-9.74 12.433zm-13.589-.487h-2.7l.572-1.463-1.637-2.519.573-2.437 2.701.487v-1.056l-1.637-1.95v-.488c3.602 2.763 5.402 4.578 5.402 5.444v.488l-1.637-.488h-.49v.488l1.063 1.544v.487l-2.7-.487v1.463l.49.487zm59.017 5.038h-.573l-4.338-12.026h1.064l3.847 11.458v.568zm.492-5.038h-.492v-5.444l-.573-.488h.573l1.638 1.463v3.494l-1.146.975zm-51.323-1.463h-1.146V86.22h1.146v1.543zm42.728 12.433h-.573l-2.128-8.45h1.064c0 2.437.545 4.604 1.637 6.5v1.95zm-1.146 6.501h-.491c-1.801-4.713-2.701-8.207-2.701-10.482v-.488h1.064l2.128 9.995v.975zm4.338-5.038h-1.064l-1.064-4.47c.764 0 1.473 1.49 2.128 4.47zm-8.595 13.977c-.927-.325-2.564-4.632-4.91-12.92v-.488c2.51-2.33 3.764-3.846 3.764-4.55h1.146l1.556 9.507h-.491l-.573-.488c0-1.029-.355-1.544-1.065-1.544h-.573l1.638 6.989-1.065.975v.569l.573.487v1.463zm5.403-4.47h-1.146v-2.518c1.091 0 1.637-.325 1.637-.975v-1.463l-.491-.488 2.701.488.491-2.032h.573l.491.488c0 1.192-1.419 3.359-4.256 6.5zm-10.887 0h-.491l-1.637-4.956v-.488c.491 0 1.2 1.328 2.128 3.982v1.463zm-2.701 6.99l-4.83-11.459h1.065c3.274 4.551 4.91 7.856 4.91 9.914v.57l-1.145.974zm-6.467-4.47h-.573c-1.582-2.655-2.646-3.982-3.192-3.982l1.064-1.056h.573l2.128 3.982v1.056zm-5.975 5.444l-1.555-.975h-.573l-.573.488c-1.855-2.005-3.465-3.007-4.83-3.007l-1.064-3.006v-.488h1.637l3.766.488c0-1.572 1.255-2.736 3.765-3.495 1.91 1.788 3.71 4.957 5.402 9.508h-1.064l-2.7-2.032h-.574v1.057c-1.091 0-1.637.487-1.637 1.462zm-15.634 3.007h-1.637c0-.65-1.255-2.14-3.766-4.47l-1.637.976v-.975c-2.728-.975-4.529-2.303-5.402-3.982v-.569c0-.542 1.064-1.192 3.192-1.95l3.274 3.006-.572-2.519h1.145l3.193 2.52h.573c0-1.355.545-2.032 1.637-2.032l3.192.975 1.146-.975h.491c.819 0 2.265 2.33 4.339 6.988v.488h-.492c0-1.192-1.637-3.007-4.91-5.445 0 1.03 1.254 3.36 3.764 6.989v.488h-1.064c-2.619-2.872-4.61-4.361-5.975-4.47h-.491l-.573.488-2.701-1.544h-.491c1.528 2.654 2.783 3.982 3.765 3.982v2.031zm37.817-7.964v-2.031h2.21v.488l-2.21 1.543zm-50.259 1.463h-.573l-1.064-.975h.573l1.064.975zm38.39 3.007h-1.064l-.573-1.463v-.569h1.064l.573 1.544v.488zm14.079-82.237l1.064 3.982v1.056l-3.765-5.038 2.7 7.476v.488c-.709 0-2.155-2.465-4.338-7.395h-1.064c.437 2.925 1.883 5.905 4.339 8.939v2.519c-.819 0-1.556-1.68-2.21-5.038h-1.065l2.129 7.476h-.491l-.573.487c-1.092-3.954-1.992-5.932-2.702-5.932h-.573l1.637 4.47v.975l-4.829-4.47h-.573l1.637 6.014h-1.064c0-1.192-1.091-3.034-3.274-5.526V46.4c0-.65.737-.975 2.21-.975 0-2.004.71-3.006 2.128-3.006v-.976l2.128-9.02-1.064-4.469h.573l-1.064-5.932v-.569h.491c3.82 2.709 6.903 5.715 9.25 9.02v.488c-1.474-.65-2.21-1.653-2.21-3.007h-.491c-.873 0-1.42.84-1.637 2.52.982 3.954 1.882 5.931 2.7 5.931zm49.194 90.2c0-1.083 3.002-1.977 9.004-2.681 5.403 0 8.54.542 9.414 1.625h.49v-1.056c2.183-.596 3.275-1.138 3.275-1.626l.491-.487-1.392-2.682.9-2.681-.9-18.04.41-1.626-.41-7.963V88.33l.41-3.25-.41-2.6v-3.739l.41-2.681-.41-.488c.382 0 .683-3.034.9-9.101l-.49-27.141-.41-1.544.41-.57v-1.056l-.41-.487h.41l-.41-1.625.41-2.113V18.12l-.9-1.137h-1.392l-.491.568c-1.42-4.17-3.63-7.178-6.63-9.02C497.402 2.844 494.564 0 493.091 0l-.9 1.056-4.748-.487h-6.63c-2.456 0-6.085.704-10.887 2.113l-1.883-.57c-.928 1.301-1.391 2.547-1.391 3.739v2.113L464.77 9.02l2.374 12.27v8.533l.9 3.17c0 15.656-.627 34.806-1.883 57.451l.492 7.476-.492 6.339.492 3.738-.492 2.681v2.6l.492.57 3.765-.57 9.495 6.908c4.53 4.28 7.667 6.42 9.413 6.42zm-20.3-15.927l.492-2.194.409-28.685L471.4 60.62v-23.89l-.491-5.364.491-.488v-.568l-.491-.488.491-13.896V12.27l.491-3.25 3.766-1.544-.492-.569.9-1.056 10.888-.569 2.373.569 1.392-.569 2.865.569-.491 5.282.49 4.794-.982 5.364.983 7.394h-.491l1.473 13.327c-.982 7.151-1.637 15.846-1.965 26.085v.488l.492.569c-.382 8.397-1.01 13.001-1.883 13.814l.982 15.44-.49 2.681v4.226l-1.884 2.682h-3.356l-14.16.487c0 .975-1.092 1.707-3.275 2.194zm38.226-71.347h-.9c-.819-4.605-1.773-6.908-2.865-6.908l1.392 5.851v.569l-4.666-9.589h-.491l-.491.569c0-1.083-.3-1.625-.9-1.625v-.57l.409-.487v-1.056c-1.256-1.896-1.883-4.93-1.883-9.101V15.44h.982v-1.626l-.491-.487 2.374-2.194 5.648 10.158v.487h-.491l-.41-.487h-.49l-.492.487-.9-1.056h-.491c2.51 5.309 4.229 10.997 5.156 17.065v1.544zm-6.548-16.984v-.569c-.491-2.817-1.146-4.226-1.964-4.226h-.9l1.882 4.795h.982zm8.022 2.113h-.982l-.9-2.682h.408l1.474 1.625v1.057zm-1.474 3.169h-.409c-.6 0-1.255-1.598-1.964-4.795l.49-.487c.656 0 1.283 1.76 1.883 5.282zm.492 28.767c-1.583-1.517-4.584-9.318-9.004-23.404h.49l2.866 3.17v.568l-.983 1.544 5.239 5.851-.491.569 1.883 11.133v.569zm-7.531-15.44c-.546 0-1.173-1.246-1.883-3.738h.9l.983 2.681v1.057zm4.666 60.62v-1.055l-2.292-3.17c0-1.625-1.283-5.715-3.847-12.27v-1.057l.49-3.738h.492l4.256 12.27h.9l-.409-2.112c-4.092-10.347-6.139-18.853-6.139-25.516v-.569h.41c0 .921.955 1.978 2.864 3.17v-.488l-3.274-7.964v-3.25h.9c0 1.462.328 2.194.983 2.194h.491c0-.759.464-1.138 1.392-1.138-2.51-3.792-3.766-7.693-3.766-11.702v-4.713l1.883 2.6c3.438 11.106 5.648 17.31 6.63 18.61v1.625l.9 7.963-.49 3.738c.654 1.409.982 3.36.982 5.851l-.983 4.795.983 1.625-.983 1.056-1.882-7.476.982-2.113c-1.855-6.771-3.274-10.157-4.256-10.157h-.492l-.49.569c0 2.004.627 3.602 1.882 4.794h-.9l5.648 19.178v3.169l-1.883-.569v-.487l.491-.57-.982-1.056h-.491l2.373 10.646h-.9c-.218-1.788-.71-2.682-1.473-2.682zm2.373-28.684l-4.665-14.871-1.883.487h-.491l.491 1.626c1.146 0 3.029 4.252 5.648 12.758h.9zm-11.295 48.92h-1.392c0-2.114-1.583-5.12-4.748-9.021v-.569l3.275-1.056.49.569v.487l-.49.569c0 .596.955 1.11 2.865 1.544 0-1.409.79-2.465 2.373-3.17 5.676 6.34 8.513 9.888 8.513 10.646h-1.473l-.9-1.056-2.374.569-.492-.57v-.568l-1.391.569h-.982c-1.255-1.355-1.883-2.6-1.883-3.738h-.491v2.681l-1.392-1.056h-.9v.487c0 .705.464 1.057 1.392 1.057v1.625zm-12.279-5.283c-3.765-1.408-5.648-2.654-5.648-3.738v-.569h1.392c1.8 0 3.22 1.246 4.256 3.738v.57zm6.63 4.226l-3.847-2.113c-.272-3.576-1.528-5.363-3.765-5.363l.982-1.057h.491l1.883 1.625h.41c0-1.083.49-1.625 1.473-1.625.982.488 2.073 2.086 3.274 4.795l-.9 3.738zm-3.355 0h-.492l-1.391-1.057v-.569l.491-.487 1.392 1.544v.569zm17.926-19.178v.569c0 2.6.49 4.009 1.473 4.225l1.392-1.056.49 2.682v4.794h-.49c0-1.408-.464-2.113-1.392-2.113h-.491v.488l.491.569h-2.374c-2.837-1.463-4.256-3.955-4.256-7.476h.982v-1.057l-1.473-8.532v-.488l.49-.569c.656 0 1.61 2.492 2.866 7.476v.488l1.391-.488h.491l.41.488zM490.224 169.862c2.644 0 5.079-.657 7.304-1.97 2.224-1.315 3.953-3.065 5.187-5.25a14.046 14.046 0 001.85-7.013 13.99 13.99 0 00-1.927-7.146 13.947 13.947 0 00-5.263-5.212 14.248 14.248 0 00-7.15-1.895c-2.569 0-4.965.638-7.19 1.914a13.946 13.946 0 00-5.244 5.231c-1.272 2.212-1.907 4.58-1.907 7.108 0 2.502.62 4.845 1.86 7.031 1.239 2.186 2.97 3.933 5.196 5.24 2.224 1.309 4.652 1.962 7.284 1.962zm0-2.11c-2.165 0-4.195-.54-6.089-1.622a11.96 11.96 0 01-4.484-4.444 11.859 11.859 0 01-1.643-6.067c0-2.2.551-4.228 1.652-6.085a12.255 12.255 0 014.466-4.416 11.947 11.947 0 016.098-1.632c2.215 0 4.258.547 6.127 1.641a12.254 12.254 0 014.446 4.435 11.743 11.743 0 011.643 6.057c0 2.2-.55 4.229-1.652 6.086a12.255 12.255 0 01-4.465 4.416 11.947 11.947 0 01-6.099 1.631zm-2.444-3.692v-6.707h2.615l4.01 6.707h3.255l-4.61-7.484c.994-.379 1.765-.957 2.314-1.734.549-.776.823-1.67.823-2.68 0-1.68-.5-2.93-1.5-3.752-1.002-.82-2.574-1.231-4.718-1.231h-5.056v16.88h2.867zm1.801-8.968h-2.013v-5.275h1.976c1.155 0 2 .199 2.534.597.535.398.802 1.057.802 1.976 0 .784-.302 1.43-.904 1.939-.603.508-1.401.763-2.395.763zM33.553 230c3.9 0 7.456-.286 10.668-.858 3.213-.571 6.154-1.341 8.823-2.31 2.669-.969 5.106-2.096 7.312-3.382a61.565 61.565 0 006.113-4.05 81.572 81.572 0 005.227-4.287 389.36 389.36 0 014.675-4.121 77.8 77.8 0 014.459-3.597 22.141 22.141 0 014.555-2.644V194.51a47.98 47.98 0 00-8.175 3.977 147.366 147.366 0 00-7.576 4.955c-2.477 1.73-4.955 3.454-7.432 5.169a68.94 68.94 0 01-7.696 4.62 46.069 46.069 0 01-8.367 3.312c-2.925.841-6.081 1.262-9.47 1.262-2.717 0-5.162-.397-7.336-1.19-2.173-.795-4.011-2.002-5.514-3.621-1.502-1.62-2.66-3.645-3.476-6.074-.815-2.43-1.223-5.28-1.223-8.552 0-2.286.232-4.787.696-7.503a71.418 71.418 0 011.99-8.408 83.746 83.746 0 013.14-8.694 78.736 78.736 0 014.148-8.385 66.708 66.708 0 015.01-7.55c1.806-2.351 3.716-4.384 5.73-6.099 2.014-1.715 4.116-3.072 6.305-4.073 2.19-1 4.436-1.5 6.737-1.5 1.95 0 3.604.293 4.963.88 1.358.588 2.47 1.366 3.332 2.335a8.792 8.792 0 011.87 3.383 14.18 14.18 0 01.575 4.073c0 2.7-.535 5.169-1.606 7.408-1.07 2.239-2.445 4.168-4.123 5.788a18.516 18.516 0 01-5.658 3.763c-2.094.89-4.164 1.334-6.21 1.334-.767 0-1.398-.055-1.894-.166-.495-.112-.919-.23-1.27-.358a46.814 46.814 0 01-.96-.357 2.785 2.785 0 00-1.006-.167c-.64 0-1.143.159-1.51.477a3 3 0 00-.84 1.238 6.735 6.735 0 00-.383 1.691c-.064.62-.096 1.215-.096 1.787 0 .381.008.746.024 1.096.016.349.024.65.024.905 0 1.46.72 2.58 2.158 3.358s3.612 1.168 6.52 1.168c2.206 0 4.412-.413 6.617-1.24a29.24 29.24 0 006.378-3.358 33.887 33.887 0 005.73-5.026 37.66 37.66 0 004.626-6.217 32.558 32.558 0 003.093-6.907c.751-2.398 1.127-4.772 1.127-7.122 0-3.494-.6-6.527-1.798-9.1-1.199-2.572-2.741-4.7-4.627-6.383a18.478 18.478 0 00-6.377-3.74c-2.366-.81-4.7-1.215-7-1.215-3.549 0-6.97.572-10.262 1.715a40.148 40.148 0 00-9.398 4.74c-2.972 2.017-5.77 4.383-8.39 7.099a69.48 69.48 0 00-7.217 8.837 81.92 81.92 0 00-5.874 9.956 86.495 86.495 0 00-4.387 10.41c-1.199 3.477-2.118 6.892-2.757 10.242-.64 3.35-.959 6.487-.959 9.409 0 4.288.663 8.377 1.99 12.267 1.327 3.89 3.22 7.305 5.682 10.243a27.484 27.484 0 008.894 7.003c3.469 1.73 7.36 2.596 11.676 2.596zm61.853-9.348c1.901 0 3.779-.212 5.632-.638a34.343 34.343 0 005.371-1.701 39.931 39.931 0 004.943-2.434 65.98 65.98 0 004.397-2.788 62.698 62.698 0 008.888-7.609l-6.131-6.333c-1.236 1.198-2.741 2.466-4.516 3.805a52.123 52.123 0 01-5.656 3.71 39.346 39.346 0 01-6.155 2.835c-2.107.756-4.111 1.134-6.013 1.134a7.187 7.187 0 01-1.687-.189 4.684 4.684 0 01-1.497-.661c-.475-.315-.943-.757-1.402-1.324-.46-.567-.927-1.276-1.402-2.126 2.756-.756 5.315-1.812 7.676-3.167 2.36-1.354 4.396-2.898 6.107-4.631 1.711-1.733 3.209-3.812 4.492-6.238 1.283-2.426 1.925-4.616 1.925-6.57 0-1.795-.317-3.418-.95-4.867a10.8 10.8 0 00-2.639-3.71c-1.124-1.024-2.447-1.82-3.968-2.386-1.521-.567-3.169-.85-4.943-.85-2.187 0-4.175.385-5.965 1.157a17.455 17.455 0 00-4.849 3.119 21.534 21.534 0 00-3.778 4.537 30.226 30.226 0 00-2.686 5.411c-.713 1.89-1.402 4.056-2.067 6.498-.666 2.442-.998 4.545-.998 6.31 0 2.614.372 5.111 1.117 7.49.744 2.378 1.861 4.474 3.35 6.285 1.49 1.812 3.351 3.253 5.585 4.324 2.234 1.072 4.84 1.607 7.819 1.607zm-6.88-21.811c0-.697.032-1.536.098-2.518.066-.981.372-2.232.917-3.752.545-1.52 1.024-2.795 1.437-3.824.413-1.03.959-1.947 1.636-2.755.677-.807 1.52-1.464 2.528-1.971 1.007-.507 2.222-.76 3.642-.76.793 0 1.462.46 2.007 1.377.546.919.818 2.09.818 3.515 0 1.014-.578 2.296-1.734 3.848-1.157 1.551-2.338 2.786-3.544 3.705a17.658 17.658 0 01-3.915 2.256c-1.404.586-2.701.879-3.89.879zm37.347 21.811c1.087 0 2.253-.15 3.5-.45a30.56 30.56 0 003.836-1.207 44.654 44.654 0 003.907-1.727c1.295-.647 2.55-1.302 3.764-1.965a99.03 99.03 0 008.439-5.396l-3.932-9.94a92.777 92.777 0 01-6.329 4.592 70.721 70.721 0 01-2.685 1.68 35.886 35.886 0 01-2.709 1.467c-.879.426-1.71.766-2.493 1.018-.783.252-1.478.379-2.086.379-.256 0-.527-.182-.815-.545-.288-.363-.56-.852-.815-1.467a12.875 12.875 0 01-.647-2.083 10.747 10.747 0 01-.264-2.39v-.663c.096-.63.224-1.278.384-1.94.16-.663.32-1.286.48-1.87.159-.584.327-1.128.503-1.633.175-.505.343-.915.503-1.23 1.47-2.841 3.045-5.752 4.723-8.734a601.3 601.3 0 005.01-9.088 269.728 269.728 0 004.795-9.301 104.587 104.587 0 004.051-9.349 69.525 69.525 0 002.781-9.277c.687-3.077 1.03-6.099 1.03-9.065 0-1.325-.103-2.627-.31-3.905-.209-1.278-.568-2.422-1.08-3.432a6.422 6.422 0 00-2.11-2.437c-.894-.616-2.029-.923-3.403-.923-2.014 0-3.996.6-5.946 1.798-1.95 1.2-3.82 2.848-5.61 4.947-1.79 2.098-3.5 4.56-5.13 7.384a85.41 85.41 0 00-4.53 9.112 106.54 106.54 0 00-3.74 10.177 139.923 139.923 0 00-2.853 10.555c-.8 3.503-1.407 6.903-1.822 10.2-.416 3.298-.624 6.351-.624 9.16 0 3.66.312 7.155.935 10.484.624 3.33 1.487 6.256 2.59 8.78 1.102 2.525 2.397 4.537 3.883 6.036 1.487 1.499 3.093 2.248 4.819 2.248zm-.19-37.91c0-3 .228-6.087.684-9.26a84.324 84.324 0 011.854-9.26c.781-3 1.668-5.828 2.66-8.485.992-2.657 2.034-4.985 3.123-6.986 1.09-2 2.18-3.586 3.27-4.758 1.09-1.173 2.107-1.759 3.05-1.759.26 0 .415.32.464.962.049.64.073 1.414.073 2.32-.293 2.844-.976 5.915-2.05 9.213a104.837 104.837 0 01-3.806 9.916 158.007 158.007 0 01-4.66 9.658 212.33 212.33 0 01-4.661 8.439zm31.48 37.91c1.9 0 3.778-.212 5.632-.638a34.343 34.343 0 005.37-1.701 39.931 39.931 0 004.944-2.434 65.98 65.98 0 004.396-2.788c3.137-2.206 4.77-3.891 7.558-6.758v-.85l-4.801-6.334c-1.236 1.198-2.741 2.466-4.515 3.805a52.123 52.123 0 01-5.657 3.71 39.346 39.346 0 01-6.155 2.835c-2.107.756-4.111 1.134-6.012 1.134a7.187 7.187 0 01-1.688-.189 4.684 4.684 0 01-1.497-.661c-.475-.315-.942-.757-1.402-1.324-.46-.567-.927-1.276-1.402-2.126 2.757-.756 5.315-1.812 7.676-3.167 2.36-1.354 4.397-2.898 6.108-4.631 1.71-1.733 3.208-3.812 4.491-6.238 1.284-2.426 1.925-4.616 1.925-6.57 0-1.795-.317-3.418-.95-4.867a10.8 10.8 0 00-2.638-3.71c-1.125-1.024-2.448-1.82-3.969-2.386-1.521-.567-3.169-.85-4.943-.85-2.187 0-4.175.385-5.965 1.157a17.455 17.455 0 00-4.848 3.119 21.534 21.534 0 00-3.779 4.537 30.226 30.226 0 00-2.685 5.411c-.713 1.89-1.402 4.056-2.068 6.498-.665 2.442-.998 4.545-.998 6.31 0 2.614.372 5.111 1.117 7.49.745 2.378 1.862 4.474 3.35 6.285 1.49 1.812 3.352 3.253 5.586 4.324 2.234 1.072 4.84 1.607 7.818 1.607zm-6.358-21.811c0-.697.033-1.536.099-2.518.066-.981.372-2.232.917-3.752.545-1.52 1.024-2.795 1.437-3.824.413-1.03.958-1.947 1.636-2.755.677-.807 1.52-1.464 2.527-1.971 1.008-.507 2.222-.76 3.643-.76.793 0 1.462.46 2.007 1.377.545.919.818 2.09.818 3.515 0 1.014-.578 2.296-1.735 3.848-1.156 1.551-2.337 2.786-3.543 3.705a17.658 17.658 0 01-3.916 2.256c-1.404.586-2.7.879-3.89.879zm45.317 21.811a49.465 49.465 0 003.396-1.467c.925-.442 1.858-.931 2.798-1.468.941-.536 1.683-1.072 2.225-1.609a78.037 78.037 0 006.338-1.704 45.536 45.536 0 005.74-2.248 41.231 41.231 0 005.358-3.053c1.738-1.168 3.484-2.54 5.238-4.118l-1.486-9.515c-1.276 1.263-4.717 4.063-5.928 4.994a48.789 48.789 0 01-3.612 2.533 56.276 56.276 0 01-3.564 2.082c-1.18.631-2.344 1.278-3.492 1.941.957-1.452 1.73-2.856 2.32-4.213a25.295 25.295 0 001.387-4.094c.335-1.373.566-2.777.694-4.213s.191-2.958.191-4.568c0-1.925-.27-3.77-.813-5.538-.542-1.767-1.323-3.329-2.344-4.686a11.878 11.878 0 00-3.731-3.266c-1.467-.82-3.141-1.23-5.023-1.23-1.467 0-2.942.67-4.425 2.011-1.483 1.341-3.117 3.116-4.903 5.325l-.765-.52a195.918 195.918 0 006.72-8.568 94.247 94.247 0 006.1-9.301c1.818-3.171 3.293-6.35 4.425-9.538 1.132-3.187 1.698-6.28 1.698-9.277 0-2.146-.128-4.166-.383-6.06-.255-1.893-.781-3.541-1.578-4.946-.798-1.404-1.93-2.516-3.397-3.337-1.467-.82-3.412-1.23-5.836-1.23-2.168 0-4.186.867-6.051 2.603-1.866 1.736-3.588 4.04-5.166 6.91-1.58 2.872-3.014 6.146-4.306 9.823-1.291 3.676-2.36 7.684-3.205 12.023-.845 4.338-1.459 7.96-1.841 10.863a308.56 308.56 0 00-1.149 10.366c-.574 2.777-1.18 7.147-1.817 13.111-.447 4.04-.782 7.463-1.005 10.272a170.213 170.213 0 00-.574 8.662c1.69 1.23 3.444 2.43 5.262 3.597.989.6 3.396 1.42 7.223 2.462.385.117 2.736.18 7.054.188l2.227.001zm-9.729-42.584c.197-1.043.458-2.409.785-4.099.327-1.69.712-3.553 1.153-5.59.442-2.038.933-4.194 1.472-6.468a167.354 167.354 0 013.655-13.006c.655-2.006 1.325-3.775 2.012-5.307.687-1.532 1.382-2.748 2.086-3.649.703-.9 1.382-1.35 2.036-1.35.556 0 .997.174 1.325.521.327.348.58.743.76 1.185.18.442.294.869.343 1.28.05.41.074.678.074.805a36.035 36.035 0 01-1.104 6.61 50.841 50.841 0 01-2.159 6.396 70.89 70.89 0 01-2.895 6.16 169.355 169.355 0 01-3.262 5.875 233.652 233.652 0 01-3.312 5.52 96.75 96.75 0 00-2.969 5.117zm4.488 33.648a8.14 8.14 0 01-2.91-.048 38.318 38.318 0 01-3.148-.806c.096-1.107.207-2.293.334-3.559.127-1.107.286-2.372.477-3.795.477-3.733.716-5.63.716-5.694-.35-.664.19-2.467 1.622-5.409.731-1.518 1.574-2.76 2.528-3.724.954-.965 1.987-1.677 3.1-2.135 1.113-.46 2.226-.688 3.34-.688 1.24 0 2.265.166 3.076.498.811.332 1.447.767 1.908 1.305.461.537.78 1.162.954 1.874.175.711.263 1.463.263 2.253 0 1.202-.08 2.523-.239 3.962a42.99 42.99 0 01-.715 4.365 30.494 30.494 0 01-1.24 4.247c-.51 1.36-1.114 2.57-1.813 3.63-.7 1.059-1.495 1.905-2.385 2.538a4.991 4.991 0 01-2.958.949c-.922 0-1.892.079-2.91.237zm38.75 8.936c.574 0 1.1-.102 1.58-.306.478-.205.925-.558 1.34-1.062.414-.503.821-1.155 1.22-1.957s.822-1.816 1.268-3.042l8.568-23.535h.766a71.63 71.63 0 001.005 5.872c.415 1.934 1.053 3.68 1.915 5.236a10.52 10.52 0 003.494 3.773c1.468.959 3.398 1.438 5.792 1.438a13.5 13.5 0 003.948-.59 25.488 25.488 0 003.734-1.462 35.847 35.847 0 003.374-1.862c1.053-.66 1.995-1.258 2.824-1.793l.718-11.036a40.055 40.055 0 01-4.403 3.113 29.08 29.08 0 01-4.212 2.122c-1.532.629-3.016.943-4.452.943a3.83 3.83 0 01-1.46-.283c-.462-.188-.877-.51-1.244-.966-.367-.456-.662-1.062-.886-1.816-.223-.755-.335-1.698-.335-2.83 0-.66.08-1.486.24-2.476.16-.99.414-2.256.766-3.797l.127-.564c.286-1.284.499-2.346.638-3.185.16-.96.24-1.706.24-2.24 0-.692-.128-1.313-.383-1.863a4.137 4.137 0 00-1.03-1.392 4.605 4.605 0 00-1.507-.872 5.245 5.245 0 00-1.771-.307c-1.755 0-3.303.464-4.643 1.391a16.302 16.302 0 00-3.59 3.42c-1.053 1.352-2.058 3.05-3.015 5.093a181.817 181.817 0 01-2.394 4.953h-.526c-.064-1.604-.016-3.475.143-5.613.16-2.138.24-3.789.24-4.952 0-.975-.024-1.745-.072-2.311-.048-.566-.183-.998-.407-1.297-.223-.299-.566-.487-1.029-.566-.463-.079-1.109-.118-1.938-.118-.734 0-1.349.04-1.843.118-.495.079-.91.236-1.245.472a3.29 3.29 0 00-.885.967c-.256.408-.51.958-.766 1.65-.415 1.038-.83 2.358-1.245 3.962-.414 1.604-.909 3.608-1.483 6.013a110.157 110.157 0 00-1.412 6.792 161.051 161.051 0 00-.958 6.249 129.321 129.321 0 00-.646 5.825c-.16 1.84-.24 3.45-.24 4.834 0 1.258.073 2.476.216 3.655.144 1.18.43 2.233.862 3.16.43.928 1.045 1.667 1.843 2.217.797.55 1.85.825 3.159.825zm67.624.52c1.763 0 3.527-.428 5.29-1.282a26.055 26.055 0 004.953-3.131 36.037 36.037 0 004.16-3.89c1.235-1.361 2.22-2.547 2.958-3.56l1-1-2.308-10.533c-1.603 2.15-4.19 5.08-5.761 6.789a33.465 33.465 0 01-2.14 2.111 25.438 25.438 0 01-2.26 1.827c-.754.538-1.5.973-2.237 1.305-.738.332-1.443.498-2.116.498-.898 0-1.483-.42-1.756-1.258-.272-.838-.408-2-.408-3.487 0-1.74.272-3.843.817-6.31.545-2.468 1.01-4.674 1.395-6.62.385-1.945.737-3.843 1.058-5.693.32-1.85.48-3.535.48-5.054 0-.98-.087-1.755-.264-2.325-.176-.569-.425-1.012-.745-1.328a2.27 2.27 0 00-1.106-.617 6.058 6.058 0 00-1.347-.142c-.353 0-.713.008-1.082.023l-.547.018-.535.006c-.417 0-.826-.024-1.226-.071-.401-.047-.794-.15-1.179-.308a2.234 2.234 0 01-.961-.76c-.257-.348-.521-.703-.794-1.067a4.32 4.32 0 00-1.034-.973c-.417-.285-.994-.427-1.731-.427-2.213 0-4.385.467-6.517 1.4-2.132.933-4.16 2.19-6.084 3.772-1.923 1.582-3.695 3.432-5.314 5.551-1.619 2.12-3.134 4.635-4.544 7.545-1.411 2.91-2.453 5.614-3.126 8.113-.674 2.5-1.01 4.935-1.01 7.307 0 2.088.336 3.962 1.01 5.623.673 1.66 1.57 3.068 2.693 4.223a11.713 11.713 0 003.871 2.657 11.44 11.44 0 004.497.925c1.443 0 2.885-.237 4.328-.712a23.676 23.676 0 004.16-1.826 25.266 25.266 0 003.68-2.491c1.121-.918 2.067-1.82 2.837-2.705 1.026 2.562 2.244 4.516 3.655 5.86 1.41 1.344 3.174 2.017 5.29 2.017zm-19.693-9.348c-.74 0-1.352-.18-1.835-.54a3.896 3.896 0 01-1.16-1.407 6.608 6.608 0 01-.604-1.97 14.984 14.984 0 01-.169-2.274c0-1.376.185-2.846.556-4.409.37-1.563 1.006-3.377 1.908-5.44.902-2.064 1.82-3.8 2.754-5.207a23.422 23.422 0 013.067-3.752c1.111-1.094 2.295-1.962 3.551-2.603 1.256-.64 2.544-.961 3.865-.961l-3.623 15.337c-.13 1-.41 2.25-.846 3.752a25.382 25.382 0 01-1.715 4.361c-.708 1.408-1.546 2.611-2.512 3.612-.966 1-2.045 1.5-3.237 1.5zm49.562 8.309c1.186 0 2.508-.22 3.966-.661 1.458-.441 3.125-1.103 5-1.984 1.874-.882 4.014-1.984 6.417-3.307a548.044 548.044 0 008.22-4.63V197.46a34.782 34.782 0 01-3.22 3.047 52.79 52.79 0 01-11.466 7.275 28.178 28.178 0 01-3.317 1.298c-1.01.315-1.85.473-2.524.473-1.09 0-2.075-.166-2.956-.496a5.231 5.231 0 01-2.235-1.606c-.61-.74-1.074-1.693-1.395-2.858-.32-1.165-.48-2.598-.48-4.299 0-.661.008-1.386.024-2.173.016-.787.04-1.606.072-2.456l.096-2.575.096-2.527c.096-1.89.208-3.81.337-5.763.8-.976 1.674-2.07 2.62-3.283a174.764 174.764 0 002.812-3.708h18.46c.77 0 1.474-.346 2.115-1.04.641-.692.962-1.59.962-2.692 0-.913-.144-1.669-.433-2.267-.288-.598-.753-.913-1.394-.945a107.21 107.21 0 00-2.067-.094c-.833-.032-1.73-.063-2.692-.095-.962-.031-1.955-.07-2.98-.118a382.552 382.552 0 01-2.861-.142 44.166 44.166 0 00-2.332-.07c-.673 0-1.153-.016-1.442-.048a119.855 119.855 0 003.293-5.432 54.96 54.96 0 002.716-5.409 36.486 36.486 0 001.827-5.243c.449-1.716.673-3.346.673-4.89 0-1.826-.216-3.581-.649-5.266-.433-1.685-1.05-3.157-1.85-4.417-.802-1.26-1.771-2.267-2.91-3.023a6.675 6.675 0 00-3.773-1.134c-2.147 0-4.198.937-6.153 2.81-1.955 1.875-3.758 4.362-5.409 7.464-1.65 3.102-3.14 6.645-4.47 10.629a105.262 105.262 0 00-3.294 12.352c-.32.063-.905.087-1.754.071-.85-.015-1.811-.04-2.885-.07a78.763 78.763 0 00-3.365-.024 22.2 22.2 0 00-3.22.26c-.978.157-1.78.401-2.404.732-.625.33-.938.81-.938 1.44 0 .284.016.622.048 1.016s.144.772.337 1.134c.192.362.496.677.913.945.417.267 1.01.448 1.779.543 1.73.189 3.053.346 3.966.472a50.592 50.592 0 013.942.685c.529.11 1.274.228 2.235.354a104.82 104.82 0 00-.673 6.377 81.255 81.255 0 00-.24 6.047c0 4.85.312 9.211.937 13.085.625 3.873 1.563 7.172 2.813 9.896 1.25 2.724 2.804 4.81 4.663 6.259 1.859 1.449 4.006 2.173 6.442 2.173zm-.053-50.374a66.153 66.153 0 00-1.542-.166 48.038 48.038 0 01-1.492-.165c.597-2.55 1.251-5.177 1.964-7.884.713-2.707 1.476-5.186 2.288-7.436.813-2.25 1.658-4.1 2.537-5.547.879-1.448 1.75-2.172 2.612-2.172.63 0 1.119.126 1.467.378.348.251.605.566.77.944.167.378.275.779.324 1.204.05.425.075.81.075 1.156 0 1.008-.282 2.298-.846 3.872a55.067 55.067 0 01-2.139 5.075 80.522 80.522 0 01-2.91 5.524 186.808 186.808 0 01-3.108 5.217zm35.683-1.558c1.653 0 3.07-.244 4.254-.732 1.183-.488 2.163-1.125 2.941-1.912a7.219 7.219 0 001.702-2.691 9.27 9.27 0 00.535-3.116c0-1.165-.22-2.172-.657-3.022a5.552 5.552 0 00-1.774-2.053c-.746-.52-1.62-.905-2.626-1.157a13.163 13.163 0 00-3.208-.378c-1.816 0-3.33.276-4.546.826-1.216.551-2.188 1.228-2.917 2.03-.73.803-1.256 1.66-1.58 2.573-.325.913-.487 1.732-.487 2.455 0 2.172.681 3.911 2.042 5.217 1.362 1.306 3.468 1.96 6.32 1.96zm-8.286 52.451c1.866 0 3.836-.332 5.91-.995a42.954 42.954 0 006.104-2.489 46.14 46.14 0 005.572-3.27c1.721-1.186 3.16-2.3 4.318-3.343v-9.622c-1.06.853-2.283 1.88-3.666 3.08a98.714 98.714 0 01-4.246 3.485 34.455 34.455 0 01-4.294 2.868c-1.415.79-2.702 1.185-3.86 1.185-.997 0-1.656-.419-1.978-1.256-.322-.838-.482-1.968-.482-3.39 0-1.453.16-3.089.482-4.906a79.538 79.538 0 011.206-5.593 109.02 109.02 0 011.834-6.352c.74-2.323 1.35-4.314 1.833-5.973.482-1.66.885-3.144 1.206-4.456.322-1.311.483-2.315.483-3.01 0-.822-.242-1.477-.724-1.967-.483-.49-1.4-.735-2.75-.735-.74 0-1.568.087-2.485.26-.917.175-1.801.443-2.653.807a9.03 9.03 0 00-2.292 1.398c-.74.632-1.19 1.343-1.351 2.133-.257 1.201-.933 3.792-2.026 7.774-1.351 4.772-2.252 7.853-2.702 9.244-.258.632-.837 3.508-1.737 8.627-.45 2.655-.676 4.977-.676 6.968 0 1.422.153 2.726.459 3.911.305 1.185.812 2.188 1.52 3.01.707.822 1.632 1.462 2.774 1.92 1.142.458 2.549.687 4.221.687zm31.023.52c1.962 0 3.812-.334 5.549-1a18.57 18.57 0 004.8-2.713 20.459 20.459 0 003.909-4.046 26.71 26.71 0 002.895-4.997 28.848 28.848 0 001.81-5.521 26.34 26.34 0 00.626-5.664c0-2.57-.233-4.879-.7-6.925a25.257 25.257 0 00-2.098-5.83l.386-.524c1.158.761 2.541 1.705 4.15 2.832 1.608 1.126 3.24 2.498 4.897 4.117a160.113 160.113 0 004.704 4.426c1.48 1.333 2.654 2.57 3.522 3.712l.917-6.71a374.083 374.083 0 00-5.621-6.807c-2.01-2.38-4.182-4.355-6.514-5.925a32.801 32.801 0 00-7.503-3.76c-2.67-.937-5.532-1.405-8.588-1.405-3.57 0-6.787.643-9.65 1.928-2.863 1.285-5.283 3.046-7.261 5.283-1.979 2.237-3.498 4.87-4.56 7.901-1.061 3.03-1.592 6.64-1.592 10.828 0 2.539.297 5.045.892 7.52.596 2.475 1.536 4.696 2.823 6.664a15.38 15.38 0 004.946 4.783c2.01 1.222 4.43 1.833 7.261 1.833zm2.183-9.348c-1.276 0-2.372-.263-3.288-.788a6.266 6.266 0 01-2.207-2.102c-.557-.876-.965-1.903-1.227-3.08a17.375 17.375 0 01-.393-3.774c0-2.643.262-5.015.785-7.117.524-2.102 1.243-4.02 2.16-5.755.915-1.736 1.978-3.16 3.188-4.275 1.21-1.115 2.486-1.672 3.828-1.672 1.014 0 1.88.27 2.6.812.72.541 1.308 1.274 1.766 2.197.458.923.802 2.014 1.03 3.272.23 1.258.344 2.619.344 4.084 0 1.847-.237 3.956-.711 6.328-.475 2.373-1.104 4.395-1.89 6.066-.784 1.672-1.7 3.057-2.747 4.156-1.047 1.098-2.126 1.648-3.238 1.648zm56.082 8.828c1.754 0 3.428-.252 5.023-.757.606-.157 2.152-.788 4.64-1.892 1.02-.442 3.555-1.735 7.605-3.88 2.807-1.481 4.305-2.301 4.497-2.46l2.391-1.797.048-10.596a545.926 545.926 0 01-9.136 5.913c-2.04 1.293-3.11 1.924-3.205 1.892-.064-.031-.797.489-2.2 1.561-.287.284-.957.615-2.01.994-.7.284-1.243.425-1.626.425-1.052 0-1.825-.63-2.32-1.892-.494-1.261-.741-2.87-.741-4.825 0-1.167.072-2.444.215-3.832.144-1.388.327-2.791.55-4.21.224-1.42.47-3.028.742-4.826.27-1.797.518-3.264.741-4.4.223-1.134.407-2.112.55-2.932.144-.82.216-1.404.216-1.75 0-2.334-.47-4.163-1.412-5.488-.94-1.325-2.208-1.987-3.802-1.987-1.595 0-3.046.315-4.353.946-1.308.631-2.472 1.798-3.492 3.5-.223.38-.558.963-1.005 1.751-.446.789-.94 1.695-1.482 2.72a178.971 178.971 0 01-1.746 3.217c-.622 1.12-1.204 2.405-1.746 3.856-.542 1.45-1.02 2.562-1.435 3.335-.415.773-.718 1.332-.91 1.68h-.956c0-.221.048-.655.144-1.302.095-.646.215-1.624.358-2.933.144-1.308.295-2.475.455-3.5.16-1.025.31-2.019.454-2.98.144-.963.263-1.846.359-2.65.096-.804.144-1.443.144-1.916 0-1.734-.335-3.122-1.005-4.163-.67-1.04-1.866-1.56-3.588-1.56s-3.085.488-4.09 1.466c-1.004.977-1.682 2.191-2.032 3.642-.447 1.861-.91 4.1-1.387 6.718-.479 2.617-.91 5.558-1.292 8.823a387.75 387.75 0 00-.957 8.988c-.255 2.728-.382 5.133-.382 7.214 0 1.262.071 2.484.215 3.666.143 1.183.43 2.24.86 3.17.431.93 1.045 1.671 1.843 2.223.797.552 1.85.828 3.157.828 1.052 0 1.977-.236 2.774-.71.765-.44 1.483-1.324 2.152-2.649l12.533-24.6h.765a206.75 206.75 0 00-.956 7.073c-.256 2.192-.383 4.234-.383 6.126 0 4.826.598 8.492 1.794 11 1.196 2.507 2.67 3.76 4.424 3.76zm30.811.52c2.625 0 5.402-.292 8.33-.874a63.52 63.52 0 008.691-2.384 68.138 68.138 0 008.21-3.494c2.61-1.322 4.906-2.738 6.89-4.249l-.047-10.575a36.304 36.304 0 01-4.586 2.903c-1.52.803-3 1.535-4.441 2.196-1.44.66-2.825 1.298-4.153 1.912a28.834 28.834 0 00-3.721 2.054c0-2.015.088-4.013.264-5.996.176-1.983.144-3.541-.096-4.674a39.622 39.622 0 00-.745-2.998c-.256-.866-.504-1.684-.744-2.455a19.552 19.552 0 01-.576-2.36 15.151 15.151 0 01-.216-2.668c.096-.346.472-.873 1.128-1.582a94.197 94.197 0 002.089-2.337 26.354 26.354 0 002.017-2.643c.608-.913.912-1.747.912-2.503 0-.377-.032-.826-.096-1.345-.064-.52-.288-1.015-.672-1.487-.384-.472-.993-.874-1.825-1.204-.832-.33-2.017-.496-3.553-.496-.928 0-1.769.134-2.52.401a9.022 9.022 0 00-2.065 1.039c-.625.425-1.193.905-1.705 1.44a16.623 16.623 0 00-1.392 1.652c-2.049 2.518-3.713 4.62-4.994 6.303a944.934 944.934 0 01-3.265 4.273c-.896 1.164-1.672 2.171-2.329 3.021a111.35 111.35 0 01-2.664 3.281 34.55 34.55 0 01-3.361 3.518 187.464 187.464 0 01-4.37 3.777c-.256.22-.64.519-1.152.897-.512.377-1.024.818-1.536 1.321a8.5 8.5 0 00-1.345 1.724 4.034 4.034 0 00-.576 2.1c0 .85.096 1.503.288 1.96.192.456.448.787.768.991.32.205.704.323 1.153.354.448.032.928.048 1.44.048.416 0 .84-.016 1.272-.048a9.885 9.885 0 001.32-.189c.16 1.7.625 3.148 1.393 4.344a9.053 9.053 0 003.001 2.903c1.233.74 2.665 1.283 4.297 1.63 1.633.345 3.393.519 5.282.519zm-1.982-7.79c-1.03 0-1.945-.237-2.75-.71a12.168 12.168 0 01-2.121-1.562 51.627 51.627 0 01-1.616-1.562c-.466-.474-.892-.71-1.278-.71l13.36-13.633c.16.505.345 1.113.554 1.823.209.71.24 1.72.096 3.03-.144 1.309-.16 2.405-.048 3.289.113.883.169 1.751.169 2.603 0 .978-.097 1.917-.29 2.817-.192.899-.53 1.688-1.012 2.366-.483.679-1.134 1.223-1.954 1.633-.82.41-1.856.616-3.11.616z"/>
</g>
</svg>