<svg xmlns="http://www.w3.org/2000/svg" viewbox="0 0 12.7 15.875">
  <defs/>
  <path d="M7.23 1.793a.229.229 0 00-.208.135l-.528 1.164a.229.229 0 00.024.23l1.104 1.499a3.679 3.679 0 00-1.272.583 3.679 3.679 0 100 5.982A3.679 3.679 0 109.36 4.82l1.104-1.498a.229.229 0 00.024-.23L9.96 1.927a.229.229 0 00-.208-.135zm.066.208h1.002l-.664.993zm1.395 0h.997l-.328.96zm-.197.08l.708 1.017H7.815zm-1.358.098l.314.919h-.73zm2.71 0l.417.919h-.73zM6.765 3.306h.757l.492 1.442a3.679 3.679 0 00-.166.025zm.977 0h1.502l-.486 1.42a3.679 3.679 0 00-.531 0zm1.72 0h.758L9.137 4.773a3.679 3.679 0 00-.167-.026zm-1.03 1.619A3.47 3.47 0 115.77 6.24a2.663 2.663 0 01.445.406 2.87 2.87 0 10.751-.683 3.679 3.679 0 00-.444-.426 3.47 3.47 0 011.908-.612zm-4.083.003a3.47 3.47 0 012.58 5.622 2.663 2.663 0 01-.444-.406 2.87 2.87 0 10-.752.683 3.679 3.679 0 00.445.427 3.47 3.47 0 11-1.83-6.326zm-.116.804a2.663 2.663 0 011.366.392 3.679 3.679 0 000 4.542 2.663 2.663 0 11-1.366-4.934zm4.235 0a2.663 2.663 0 11-1.365 4.934 3.679 3.679 0 000-4.542 2.663 2.663 0 011.259-.389 2.663 2.663 0 01.106-.003zM6.35 6.813a2.663 2.663 0 010 3.164 2.663 2.663 0 010-3.164zM9.53.815l-.382.381a.104.104 0 00.147.147l.381-.381A.104.104 0 009.53.815zM7.836 1.196L7.455.815a.104.104 0 00-.147.147l.38.381a.104.104 0 00.148-.147zM8.388.73v.54a.104.104 0 00.208 0V.73a.104.104 0 00-.208 0z"/>
</svg>
